<mxfile host="app.diagrams.net" agent="Mozilla/5.0 (Windows NT 10.0; Win64; x64) AppleWebKit/537.36 (KHTML, like Gecko) Chrome/136.0.0.0 Safari/537.36 Edg/136.0.0.0" version="27.0.3">
  <diagram name="Trang-1" id="k-JKYpwfzyIuzuebq-NP">
    <mxGraphModel dx="1227" dy="606" grid="1" gridSize="10" guides="1" tooltips="1" connect="1" arrows="1" fold="1" page="1" pageScale="1" pageWidth="827" pageHeight="1169" math="0" shadow="0">
      <root>
        <mxCell id="0" />
        <mxCell id="1" parent="0" />
        <mxCell id="n3lu2XJ1bwGlvl8NA93a-5" style="edgeStyle=orthogonalEdgeStyle;rounded=0;orthogonalLoop=1;jettySize=auto;html=1;" edge="1" parent="1" source="n3lu2XJ1bwGlvl8NA93a-1" target="n3lu2XJ1bwGlvl8NA93a-2">
          <mxGeometry relative="1" as="geometry" />
        </mxCell>
        <mxCell id="n3lu2XJ1bwGlvl8NA93a-1" value="Staff" style="shape=umlActor;verticalLabelPosition=bottom;verticalAlign=top;html=1;outlineConnect=0;" vertex="1" parent="1">
          <mxGeometry x="110" y="165" width="40" height="70" as="geometry" />
        </mxCell>
        <mxCell id="n3lu2XJ1bwGlvl8NA93a-9" style="edgeStyle=orthogonalEdgeStyle;rounded=0;orthogonalLoop=1;jettySize=auto;html=1;entryX=0.5;entryY=0;entryDx=0;entryDy=0;" edge="1" parent="1" source="n3lu2XJ1bwGlvl8NA93a-2" target="n3lu2XJ1bwGlvl8NA93a-4">
          <mxGeometry relative="1" as="geometry">
            <mxPoint x="640" y="300" as="targetPoint" />
          </mxGeometry>
        </mxCell>
        <mxCell id="n3lu2XJ1bwGlvl8NA93a-12" style="edgeStyle=orthogonalEdgeStyle;rounded=0;orthogonalLoop=1;jettySize=auto;html=1;entryX=0.5;entryY=0;entryDx=0;entryDy=0;" edge="1" parent="1">
          <mxGeometry relative="1" as="geometry">
            <mxPoint x="440" y="240" as="sourcePoint" />
            <mxPoint x="280" y="370" as="targetPoint" />
            <Array as="points">
              <mxPoint x="280" y="240" />
            </Array>
          </mxGeometry>
        </mxCell>
        <mxCell id="n3lu2XJ1bwGlvl8NA93a-2" value="System" style="ellipse;whiteSpace=wrap;html=1;" vertex="1" parent="1">
          <mxGeometry x="390" y="160" width="120" height="80" as="geometry" />
        </mxCell>
        <mxCell id="n3lu2XJ1bwGlvl8NA93a-19" style="edgeStyle=orthogonalEdgeStyle;rounded=0;orthogonalLoop=1;jettySize=auto;html=1;" edge="1" parent="1" source="n3lu2XJ1bwGlvl8NA93a-3">
          <mxGeometry relative="1" as="geometry">
            <mxPoint x="450" y="240" as="targetPoint" />
          </mxGeometry>
        </mxCell>
        <mxCell id="n3lu2XJ1bwGlvl8NA93a-3" value="Inventory System" style="ellipse;whiteSpace=wrap;html=1;" vertex="1" parent="1">
          <mxGeometry x="230" y="370" width="120" height="80" as="geometry" />
        </mxCell>
        <mxCell id="n3lu2XJ1bwGlvl8NA93a-13" style="edgeStyle=orthogonalEdgeStyle;rounded=0;orthogonalLoop=1;jettySize=auto;html=1;entryX=0.5;entryY=1;entryDx=0;entryDy=0;entryPerimeter=0;" edge="1" parent="1" source="n3lu2XJ1bwGlvl8NA93a-4" target="n3lu2XJ1bwGlvl8NA93a-2">
          <mxGeometry relative="1" as="geometry">
            <mxPoint x="450" y="250" as="targetPoint" />
            <Array as="points">
              <mxPoint x="450" y="360" />
            </Array>
          </mxGeometry>
        </mxCell>
        <mxCell id="n3lu2XJ1bwGlvl8NA93a-4" value="Database" style="shape=cylinder;whiteSpace=wrap;html=1;" vertex="1" parent="1">
          <mxGeometry x="580" y="310" width="120" height="80" as="geometry" />
        </mxCell>
        <mxCell id="n3lu2XJ1bwGlvl8NA93a-6" value="1" style="text;html=1;align=center;verticalAlign=middle;resizable=0;points=[];autosize=1;strokeColor=none;fillColor=none;" vertex="1" parent="1">
          <mxGeometry x="155" y="168" width="30" height="30" as="geometry" />
        </mxCell>
        <mxCell id="n3lu2XJ1bwGlvl8NA93a-7" value="Tạo phiếu nhập/xuất" style="text;html=1;align=center;verticalAlign=middle;resizable=0;points=[];autosize=1;strokeColor=none;fillColor=none;" vertex="1" parent="1">
          <mxGeometry x="185" y="168" width="130" height="30" as="geometry" />
        </mxCell>
        <mxCell id="n3lu2XJ1bwGlvl8NA93a-8" value="" style="endArrow=classic;html=1;rounded=0;entryX=0.697;entryY=0.067;entryDx=0;entryDy=0;entryPerimeter=0;" edge="1" parent="1" target="n3lu2XJ1bwGlvl8NA93a-7">
          <mxGeometry width="50" height="50" relative="1" as="geometry">
            <mxPoint x="200" y="170" as="sourcePoint" />
            <mxPoint x="250" y="120" as="targetPoint" />
          </mxGeometry>
        </mxCell>
        <mxCell id="n3lu2XJ1bwGlvl8NA93a-10" value="2" style="text;html=1;align=center;verticalAlign=middle;resizable=0;points=[];autosize=1;strokeColor=none;fillColor=none;" vertex="1" parent="1">
          <mxGeometry x="515" y="178" width="30" height="30" as="geometry" />
        </mxCell>
        <mxCell id="n3lu2XJ1bwGlvl8NA93a-11" value="Lưu phiếu" style="text;html=1;align=center;verticalAlign=middle;resizable=0;points=[];autosize=1;strokeColor=none;fillColor=none;" vertex="1" parent="1">
          <mxGeometry x="560" y="178" width="80" height="30" as="geometry" />
        </mxCell>
        <mxCell id="n3lu2XJ1bwGlvl8NA93a-14" value="3" style="text;html=1;align=center;verticalAlign=middle;resizable=0;points=[];autosize=1;strokeColor=none;fillColor=none;" vertex="1" parent="1">
          <mxGeometry x="555" y="338" width="30" height="30" as="geometry" />
        </mxCell>
        <mxCell id="n3lu2XJ1bwGlvl8NA93a-15" value="Xác nhận đã lưu" style="text;html=1;align=center;verticalAlign=middle;resizable=0;points=[];autosize=1;strokeColor=none;fillColor=none;rotation=90;" vertex="1" parent="1">
          <mxGeometry x="380" y="320" width="110" height="30" as="geometry" />
        </mxCell>
        <mxCell id="n3lu2XJ1bwGlvl8NA93a-16" value="4" style="text;html=1;align=center;verticalAlign=middle;resizable=0;points=[];autosize=1;strokeColor=none;fillColor=none;" vertex="1" parent="1">
          <mxGeometry x="380" y="235" width="30" height="30" as="geometry" />
        </mxCell>
        <mxCell id="n3lu2XJ1bwGlvl8NA93a-17" value="Cập nhật tồn kho" style="text;html=1;align=center;verticalAlign=middle;resizable=0;points=[];autosize=1;strokeColor=none;fillColor=none;rotation=90;" vertex="1" parent="1">
          <mxGeometry x="240" y="290" width="110" height="30" as="geometry" />
        </mxCell>
        <mxCell id="n3lu2XJ1bwGlvl8NA93a-20" value="5" style="text;html=1;align=center;verticalAlign=middle;resizable=0;points=[];autosize=1;strokeColor=none;fillColor=none;" vertex="1" parent="1">
          <mxGeometry x="350" y="378" width="30" height="30" as="geometry" />
        </mxCell>
        <mxCell id="n3lu2XJ1bwGlvl8NA93a-21" style="edgeStyle=orthogonalEdgeStyle;rounded=0;orthogonalLoop=1;jettySize=auto;html=1;entryX=0.5;entryY=0;entryDx=0;entryDy=0;entryPerimeter=0;" edge="1" parent="1" source="n3lu2XJ1bwGlvl8NA93a-2" target="n3lu2XJ1bwGlvl8NA93a-1">
          <mxGeometry relative="1" as="geometry">
            <Array as="points">
              <mxPoint x="450" y="120" />
              <mxPoint x="130" y="120" />
            </Array>
          </mxGeometry>
        </mxCell>
        <mxCell id="n3lu2XJ1bwGlvl8NA93a-23" value="" style="endArrow=classic;html=1;rounded=0;" edge="1" parent="1">
          <mxGeometry width="50" height="50" relative="1" as="geometry">
            <mxPoint x="568" y="175" as="sourcePoint" />
            <mxPoint x="628" y="175" as="targetPoint" />
          </mxGeometry>
        </mxCell>
        <mxCell id="n3lu2XJ1bwGlvl8NA93a-24" value="" style="endArrow=classic;html=1;rounded=0;" edge="1" parent="1">
          <mxGeometry width="50" height="50" relative="1" as="geometry">
            <mxPoint x="650" y="240" as="sourcePoint" />
            <mxPoint x="650" y="290" as="targetPoint" />
          </mxGeometry>
        </mxCell>
        <mxCell id="n3lu2XJ1bwGlvl8NA93a-25" value="" style="endArrow=classic;html=1;rounded=0;" edge="1" parent="1">
          <mxGeometry width="50" height="50" relative="1" as="geometry">
            <mxPoint x="551" y="369" as="sourcePoint" />
            <mxPoint x="491" y="369" as="targetPoint" />
          </mxGeometry>
        </mxCell>
        <mxCell id="n3lu2XJ1bwGlvl8NA93a-26" value="" style="endArrow=classic;html=1;rounded=0;" edge="1" parent="1">
          <mxGeometry width="50" height="50" relative="1" as="geometry">
            <mxPoint x="460" y="340" as="sourcePoint" />
            <mxPoint x="460" y="290" as="targetPoint" />
          </mxGeometry>
        </mxCell>
        <mxCell id="n3lu2XJ1bwGlvl8NA93a-27" value="" style="endArrow=classic;html=1;rounded=0;" edge="1" parent="1">
          <mxGeometry width="50" height="50" relative="1" as="geometry">
            <mxPoint x="368" y="420" as="sourcePoint" />
            <mxPoint x="408" y="420" as="targetPoint" />
          </mxGeometry>
        </mxCell>
        <mxCell id="n3lu2XJ1bwGlvl8NA93a-28" value="6" style="text;html=1;align=center;verticalAlign=middle;resizable=0;points=[];autosize=1;strokeColor=none;fillColor=none;" vertex="1" parent="1">
          <mxGeometry x="415" y="128" width="30" height="30" as="geometry" />
        </mxCell>
        <mxCell id="n3lu2XJ1bwGlvl8NA93a-29" value="" style="endArrow=classic;html=1;rounded=0;" edge="1" parent="1">
          <mxGeometry width="50" height="50" relative="1" as="geometry">
            <mxPoint x="330" y="110" as="sourcePoint" />
            <mxPoint x="180" y="110" as="targetPoint" />
          </mxGeometry>
        </mxCell>
      </root>
    </mxGraphModel>
  </diagram>
</mxfile>
